<svg viewBox="0 0 75 16" xmlns="http://www.w3.org/2000/svg"><path fill="#656565" fill-rule="evenodd" d="M2 1v1H1v13h4v-3h1v1h1v1h1v1h4v-4h-1v-1h1V2h-1V1zm23 0v1h-1v13h4v-3h1v1h1v1h1v1h4v-4h-1v-1h1V2h-1V1zm28 0v1h-1v13h4v-3h1v1h1v1h1v1h4v-4h-1v-1h1V2h-1V1zM16 4v1h-1v1h-1v4h-1v5h4v-2h2v2h4v-5h-1V6h-1V5h-1V4zm20 0v10h1v1h8v-1h1V4h-4v7h-2V4zm29 0v1h-1v9h1v1h9v-4h-3V8h3V4zM5 5h3v2H5zm23 0h3v2h-3zm28 0h3v2h-3zm-9 6v4h4v-4z"/><path fill="#f3ce52" fill-rule="evenodd" d="M3 2v1H2v11h2v-4h2v1h1v1h1v1h1v1h2v-2h-1v-1H9v-1h1V9h1V3h-1V2zm1 2h5v4H4zm13 1v1h-1v1h-1v4h-1v3h2v-2h4v2h2v-3h-1V7h-1V6h-1V5zm0 3h2v2h-2z"/><path fill="#fe5b59" fill-rule="evenodd" d="M26 2v1h-1v11h2v-4h2v1h1v1h1v1h1v1h2v-2h-1v-1h-1v-1h1V9h1V3h-1V2zm1 2h5v4h-5zm10 1v8h1v1h6v-1h1V5h-2v7h-4V5z"/><path fill="#d186df" fill-rule="evenodd" d="M54 2v1h-1v11h2v-4h2v1h1v1h1v1h1v1h2v-2h-1v-1h-1v-1h1V9h1V3h-1V2zm1 2h5v4h-5zm11 1v1h-1v7h1v1h7v-2h-6v-2h3V8h-3V7h6V5z"/><path fill="#6acd5b" fill-rule="evenodd" d="M48 12h2v2h-2z"/></svg>