<svg height="16" width="16" viewBox="0 0 4.233 4.233" fill="none" xmlns="http://www.w3.org/2000/svg">
    <path
        d="M.265 0v.265H0v3.44h1.058V2.91h.265v.265h.264v.265h.265v.529h.265v.264h1.852V3.97h.264V1.323H3.97v-.265H2.91V.265h-.264V0zm.793 1.058h.794v.53h-.794z"
        fill="#656565" />
    <path
        d="M.265.53v2.91h.529V2.38h.529v.265h.264v.264h.794v-.264h-.264V2.38h-.265v-.529H.794V.794h1.323v.264h.529V.53H2.38V.265H.53v.264z"
        fill="#f3ce52" />
    <path
        d="M2.117 2.117v-.53h.264v-.264h1.323v.264h.265v2.117h-.265v.265H2.381v-.265h-.264v-.529h.529v.265h.794v-.53h-.53v-.529h.53v-.529h-.794v.265h-.53"
        fill="#fe5b59" />
</svg>